<?xml version="1.0" standalone="no"?>
<!DOCTYPE svg PUBLIC "-//W3C//DTD SVG 20010904//EN"
 "http://www.w3.org/TR/2001/REC-SVG-20010904/DTD/svg10.dtd">
<svg version="1.0" xmlns="http://www.w3.org/2000/svg"
 width="512.000000pt" height="512.000000pt" viewBox="0 0 512.000000 512.000000"
 preserveAspectRatio="xMidYMid meet">
<metadata>
Created by potrace 1.14, written by Peter Selinger 2001-2017
</metadata>
<g transform="translate(0.000000,512.000000) scale(0.100000,-0.100000)"
fill="#000000" stroke="none">
<path d="M0 2560 l0 -2560 2560 0 2560 0 0 2560 0 2560 -2560 0 -2560 0 0
-2560z m996 365 c13 -51 -17 -81 -64 -64 -17 7 -22 16 -22 44 0 28 5 37 22 44
32 12 57 2 64 -24z m3702 -244 c1 -182 6 -279 13 -288 6 -7 22 -13 36 -13 18
0 24 -5 21 -17 -3 -16 -16 -18 -113 -18 -97 0 -110 2 -113 18 -2 12 3 17 19
17 12 0 31 7 41 17 16 15 18 36 18 254 0 258 -2 269 -56 269 -23 0 -32 18 -17
34 4 4 39 5 78 4 l70 -3 3 -274z m-3893 164 c0 -63 -2 -70 -20 -70 -15 0 -21
9 -26 39 -8 47 -20 56 -86 56 l-53 0 0 -229 c0 -249 3 -261 56 -261 17 0 24
-5 24 -20 0 -20 -5 -20 -122 -18 -108 3 -123 5 -126 21 -3 13 3 17 27 17 59 0
61 8 61 261 l0 229 -54 0 c-60 0 -86 -16 -86 -53 0 -32 -15 -51 -34 -44 -12 5
-16 21 -16 70 0 35 3 67 7 71 4 3 106 5 227 4 l221 -3 0 -70z m1695 55 c0 -13
-7 -20 -18 -20 -10 0 -26 -6 -35 -13 -15 -11 -17 -28 -15 -135 l3 -123 94 108
c105 122 122 152 91 160 -11 3 -20 14 -20 25 0 17 7 19 87 16 101 -3 120 -20
55 -51 -40 -18 -177 -168 -177 -192 0 -27 186 -274 217 -287 16 -8 27 -19 25
-28 -4 -21 -94 -15 -127 9 -20 14 -113 135 -173 225 -12 18 -14 17 -45 -9 -33
-27 -33 -28 -30 -109 l3 -81 33 -10 c21 -6 32 -15 32 -27 0 -17 -9 -18 -112
-16 -98 3 -113 5 -116 21 -3 12 3 17 20 17 46 0 48 10 48 250 0 239 -2 250
-47 250 -22 0 -31 19 -16 33 3 4 55 7 115 7 101 0 108 -1 108 -20z m-1502
-309 c1 -115 7 -189 13 -198 7 -7 22 -13 36 -13 18 0 24 -5 21 -17 -3 -16 -16
-18 -113 -18 -97 0 -110 2 -113 18 -3 12 3 17 22 17 50 0 56 18 56 180 0 158
-6 180 -51 180 -19 0 -26 20 -12 34 4 4 37 6 73 4 l65 -3 3 -184z m237 174
c16 -51 14 -50 46 -19 27 26 37 29 94 29 111 0 135 -41 135 -234 0 -138 7
-161 51 -161 14 0 19 -6 17 -17 -3 -15 -15 -18 -73 -18 l-70 0 -5 171 c-4 121
-9 176 -18 187 -19 22 -68 31 -100 18 -48 -20 -56 -45 -60 -182 -3 -107 -1
-128 13 -142 9 -9 25 -17 36 -17 14 0 19 -6 17 -17 -3 -16 -16 -18 -108 -18
-92 0 -105 2 -108 18 -3 12 3 17 20 17 44 0 48 14 48 180 0 161 -4 180 -42
180 -11 0 -18 7 -18 20 0 18 7 20 60 20 45 0 62 -4 65 -15z m543 -7 c2 -11 -5
-18 -20 -20 -36 -5 -33 -44 11 -154 22 -54 43 -112 47 -127 3 -16 10 -25 14
-20 4 4 27 67 51 140 36 111 41 134 30 147 -8 9 -22 16 -33 16 -13 0 -18 6
-16 18 3 14 16 17 86 20 77 3 82 2 82 -18 0 -11 -7 -20 -15 -20 -21 0 -34 -30
-115 -255 -40 -110 -79 -213 -87 -230 -33 -66 -72 -91 -148 -96 -44 -4 -50 -2
-50 16 0 14 10 21 40 27 48 10 91 49 116 104 l19 42 -81 191 c-68 160 -86 192
-105 197 -23 6 -31 24 -17 38 4 4 48 5 97 4 76 -3 91 -6 94 -20z m1311 2 c50
-25 81 -86 81 -158 l0 -52 -130 0 -130 0 0 -30 c0 -44 24 -96 54 -115 37 -25
118 -16 152 16 20 18 27 21 33 10 35 -56 -77 -111 -182 -89 -61 13 -109 59
-126 121 -18 64 -11 182 15 232 39 76 151 107 233 65z m279 -10 c6 -51 12 -55
32 -23 24 40 48 53 99 53 66 0 104 -55 65 -94 -22 -23 -64 -21 -64 3 0 31 -26
46 -56 32 -37 -17 -56 -73 -62 -188 -6 -121 7 -153 59 -153 24 0 30 -4 27 -17
-3 -16 -16 -18 -113 -18 -97 0 -110 2 -113 18 -2 11 3 17 17 17 41 0 51 35 51
180 0 145 -10 180 -51 180 -19 0 -26 20 -12 34 4 4 32 6 63 4 50 -3 55 -5 58
-28z m380 -2 c2 -16 6 -28 10 -28 3 0 19 12 35 28 25 24 36 27 92 27 111 0
135 -42 135 -230 0 -133 8 -165 40 -165 13 0 20 -7 20 -20 0 -19 -5 -21 -67
-18 l-68 3 -5 171 c-5 187 -9 199 -65 210 -44 8 -90 -17 -104 -57 -6 -18 -11
-83 -11 -145 0 -120 9 -144 51 -144 14 0 19 -6 17 -17 -3 -16 -16 -18 -108
-18 -92 0 -105 2 -108 18 -3 12 3 17 20 17 44 0 48 14 48 180 0 165 -4 180
-47 180 -22 0 -31 19 -16 34 4 4 34 6 68 4 57 -3 60 -4 63 -30z m661 12 c50
-25 81 -86 81 -158 l0 -52 -130 0 -130 0 0 -30 c0 -42 23 -94 51 -114 31 -21
103 -21 140 1 16 10 29 21 29 25 0 14 18 8 24 -8 17 -44 -49 -86 -134 -87 -83
0 -128 25 -163 94 -26 49 -28 61 -25 139 6 110 31 163 91 191 54 24 118 24
166 -1z"/>
<path d="M2953 2715 c-20 -14 -43 -69 -43 -102 0 -10 25 -13 90 -13 97 0 96
-1 84 58 -13 65 -79 93 -131 57z"/>
<path d="M4277 2718 c-18 -14 -47 -78 -47 -103 0 -12 16 -15 90 -15 88 0 90 1
90 24 0 37 -20 86 -40 96 -26 14 -73 12 -93 -2z"/>
</g>
</svg>
